<svg width="20" height="20" viewBox="0 0 20 20" fill="none" xmlns="http://www.w3.org/2000/svg">
  <circle cx="10" cy="10" r="3" stroke="#4B5563" stroke-width="1.5"/>
  <path d="M17.5 10a7.5 7.5 0 0 0-.13-1.38l1.44-1.12a.5.5 0 0 0 .12-.65l-1.36-2.36a.5.5 0 0 0-.61-.23l-1.7.68a7.5 7.5 0 0 0-1.19-.69l-.26-1.81A.5.5 0 0 0 13 2.5h-2.72a.5.5 0 0 0-.5.42l-.26 1.81a7.5 7.5 0 0 0-1.19.69l-1.7-.68a.5.5 0 0 0-.61.23l-1.36 2.36a.5.5 0 0 0 .12.65l1.44 1.12A7.5 7.5 0 0 0 2.5 10c0 .47.04.93.13 1.38l-1.44 1.12a.5.5 0 0 0-.12.65l1.36 2.36a.5.5 0 0 0 .61.23l1.7-.68c.38.27.78.51 1.19.69l.26 1.81a.5.5 0 0 0 .5.42H13a.5.5 0 0 0 .5-.42l.26-1.81c.41-.18.81-.42 1.19-.69l1.7.68a.5.5 0 0 0 .61-.23l1.36-2.36a.5.5 0 0 0-.12-.65l-1.44-1.12c.09-.45.13-.91.13-1.38z" stroke="#4B5563" stroke-width="1.5"/>
</svg> 